<?xml version="1.0" encoding="UTF-8"?>
<svg id="Capa_1" data-name="Capa 1" xmlns="http://www.w3.org/2000/svg" viewBox="0 0 1080 1080">
  <defs>
    <style>
      .cls-1 {
        fill: #f8f8f0;
      }
    </style>
  </defs>
  <g>
    <path class="cls-1" d="M41.25,597.91h29.74c17.7,0,28.27,2.95,37.12,10.08,9.34,7.86,15.24,20.9,15.24,34.17,0,14.26-4.42,22.62-16.22,31.96,7.86,2.46,12.29,4.67,16.96,8.85,8.6,7.62,14.01,20.4,14.01,32.94,0,14.01-5.9,26.06-16.72,34.66-10.08,8.36-20.65,11.31-39.09,11.31h-41.05v-163.97ZM73.45,670.18c12.29,0,17.7-1.48,23.35-6.39,5.65-5.16,8.6-12.54,8.6-21.14s-3.2-16.72-8.6-21.63c-5.16-4.42-11.8-6.14-22.86-6.14h-14.26v55.31h13.77ZM80.58,744.91c14.5,0,21.63-1.72,28.51-7.37,6.88-5.41,10.57-13.28,10.57-22.13,0-10.32-5.41-19.91-13.52-24.58-6.63-3.93-14.01-5.16-28.02-5.16h-18.44v59.24h20.9Z"/>
    <path class="cls-1" d="M282.64,761.87h-22.37l-49.41-71.78h-4.67v71.78h-18.44v-163.97h26.55c18.68,0,29.74,2.46,39.33,8.85,11.31,7.62,18.19,21.63,18.19,37.12,0,24.83-16.22,42.53-41.3,44.74l52.12,73.26ZM217.74,673.87c23.11,0,36.14-10.82,36.14-29.99,0-10.08-4.42-18.93-12.05-23.6-5.9-3.69-13.27-5.41-24.83-5.41h-10.82v59h11.55Z"/>
    <path class="cls-1" d="M346.06,761.87h-18.44v-163.97h18.44v163.97Z"/>
    <path class="cls-1" d="M529.93,634.04c-15.98-15-30.97-21.63-49.66-21.63-36.13,0-66.13,30.73-66.13,68.34s29.99,66.87,66.37,66.87c18.19,0,33.68-6.64,49.41-21.39v22.62c-15.98,11.06-31.47,15.98-49.41,15.98-46.46,0-84.81-38.1-84.81-84.32s38.59-85.3,85.79-85.3c18.19,0,31.71,4.67,48.43,16.23v22.62Z"/>
    <path class="cls-1" d="M668.07,597.91h24.58l-76.94,76.45,79.4,87.51h-25.07l-67.11-75.22-4.67,4.67v70.55h-18.44v-163.97h18.44v70.31l69.81-70.31Z"/>
    <path class="cls-1" d="M754.35,614.87v48.92h64.65v16.96h-64.65v64.16h66.37v16.96h-84.81v-163.97h84.81v16.96h-66.37Z"/>
    <path class="cls-1" d="M889.3,744.91h44.99v16.96h-63.43v-163.97h18.44v147Z"/>
    <path class="cls-1" d="M993.76,744.91h44.99v16.96h-63.43v-163.97h18.44v147Z"/>
  </g>
  <path class="cls-1" d="M683.1,280.09h0c0-48.85-39.6-88.44-88.43-88.44h-197.76v327.94h197.76c48.83,0,88.43-39.6,88.43-88.43,0-24.42-9.9-46.53-25.9-62.53-4.96-4.96-10.51-9.33-16.52-13.01,25.44-15.53,42.42-43.55,42.42-75.53ZM422.71,217.46h118.75v.02s-61.09,125.23-61.09,125.23h-57.66v-125.26ZM422.71,493.78v-125.26h57.71l61.09,125.23v.02s-118.8,0-118.8,0ZM638.95,386.88c11.34,11.33,18.34,26.99,18.34,44.28,0,34.58-28.03,62.62-62.62,62.62h-24.45l-3.04-6.24-58.05-119.01h85.54c17.3,0,32.95,7.01,44.28,18.35ZM657.29,280.09c0,34.58-28.03,62.62-62.62,62.62h-85.59l58.06-119.04,3.03-6.22h24.5c34.59,0,62.62,28.04,62.62,62.62h0Z"/>
  <g>
    <path class="cls-1" d="M215.73,880.57h14.37v5.42h-20.26v-52.36h5.89v46.95Z"/>
    <path class="cls-1" d="M245.18,885.99h-5.89v-52.36h5.89v52.36Z"/>
    <path class="cls-1" d="M265.98,839.04v15.62h17.35v5.42h-17.35v25.91h-5.89v-52.36h23.79v5.42h-17.9Z"/>
    <path class="cls-1" d="M301.32,839.04v15.62h20.65v5.42h-20.65v20.49h21.2v5.42h-27.09v-52.36h27.09v5.42h-21.2Z"/>
    <path class="cls-1" d="M356.37,843.91c-2.67-4.24-4.95-5.65-9.03-5.65-4.86,0-8.64,3.45-8.64,8.09,0,2.28,1.1,4.16,3.3,5.65q1.88,1.25,9.02,4.4c8.48,3.69,11.86,7.85,11.86,14.44,0,9.03-7.23,16.09-16.64,16.09-8.25,0-14.13-4.94-16.09-13.5l5.65-1.57c.63,2.67,1.1,3.93,2.12,5.34,1.89,2.67,5.1,4.24,8.56,4.24,5.89,0,10.52-4.56,10.52-10.29,0-3.22-1.41-5.65-4.32-7.46q-1.96-1.25-9.26-4.55c-7.53-3.38-10.59-7.14-10.59-12.87,0-7.7,6.28-13.51,14.68-13.51,5.88,0,10.36,2.75,13.5,8.17l-4.63,2.98Z"/>
    <path class="cls-1" d="M387.62,885.99h-5.88v-46.95h-12.64v-5.42h31.24v5.42h-12.72v46.95Z"/>
    <path class="cls-1" d="M406.08,833.63h6.75l13.35,23.4,13.5-23.4h6.83l-17.43,29.83v22.53h-5.89v-22.53l-17.11-29.83Z"/>
    <path class="cls-1" d="M460.96,880.57h14.37v5.42h-20.26v-52.36h5.89v46.95Z"/>
    <path class="cls-1" d="M490.41,839.04v15.62h20.65v5.42h-20.65v20.49h21.2v5.42h-27.09v-52.36h27.09v5.42h-21.2Z"/>
    <path class="cls-1" d="M545.69,833.63h9.5c5.65,0,9.03.94,11.85,3.22,2.99,2.51,4.87,6.67,4.87,10.91,0,4.55-1.42,7.22-5.18,10.21,2.52.79,3.93,1.49,5.42,2.83,2.75,2.44,4.47,6.52,4.47,10.52,0,4.48-1.88,8.32-5.34,11.07-3.21,2.67-6.59,3.61-12.48,3.61h-13.12v-52.36ZM555.98,856.71c3.93,0,5.65-.47,7.46-2.04,1.8-1.65,2.74-4,2.74-6.75s-1.02-5.34-2.74-6.91c-1.65-1.41-3.77-1.96-7.31-1.96h-4.55v17.67h4.4ZM558.25,880.57c4.63,0,6.91-.55,9.1-2.36,2.2-1.73,3.38-4.24,3.38-7.06,0-3.3-1.73-6.36-4.32-7.85-2.12-1.25-4.48-1.65-8.95-1.65h-5.89v18.92h6.67Z"/>
    <path class="cls-1" d="M594.45,865.74c0,5.42.39,7.77,1.73,10.05,2.04,3.3,6.52,5.65,11.07,5.65s8.95-2.36,10.99-5.65c1.33-2.28,1.72-4.63,1.72-10.05v-32.11h5.89v33.68c0,5.65-.94,9.18-3.45,12.4-3.45,4.48-9.18,7.22-15.15,7.22s-11.85-2.75-15.23-7.22c-2.52-3.22-3.46-6.67-3.46-12.4v-33.68h5.89v32.11Z"/>
    <path class="cls-1" d="M646.67,885.99h-5.89v-52.36h5.89v52.36Z"/>
    <path class="cls-1" d="M667.48,880.57h14.37v5.42h-20.26v-52.36h5.89v46.95Z"/>
    <path class="cls-1" d="M691.04,833.63h10.75c8.48,0,14.21,1.81,19.23,6.05,5.89,4.86,9.03,11.93,9.03,20.1s-3.14,15.23-9.18,20.17c-5.18,4.32-10.68,6.05-19.16,6.05h-10.67v-52.36ZM702.04,880.57c6.44,0,11.07-1.49,14.99-4.79,4.63-3.85,7.14-9.58,7.14-15.94s-2.59-12.25-7.06-16.02c-3.93-3.3-8.64-4.79-15.07-4.79h-5.1v41.53h5.1Z"/>
    <path class="cls-1" d="M747.89,885.99h-5.89v-52.36h5.89v52.36Z"/>
    <path class="cls-1" d="M762.81,831.43l40.75,42.79v-40.59h5.88v54.72l-40.74-42.71v40.35h-5.89v-54.56Z"/>
    <path class="cls-1" d="M873.13,859.69v1.33c0,5.81-.79,9.74-2.75,13.27-4.24,7.69-12.88,12.64-22.06,12.64-14.68,0-26.85-12.25-26.85-27.01s12.25-27.17,27.32-27.17c5.88,0,11.54,1.89,16.01,5.34,2.04,1.49,3.53,2.98,6.04,6.05l-4.31,3.92c-5.18-6.83-10.52-9.81-17.67-9.81-11.93,0-21.51,9.74-21.51,21.75s9.66,21.44,21.04,21.44c6.52,0,13.11-3.61,16.32-8.95,1.34-2.12,1.88-4.16,2.12-7.38h-15.55v-5.42h21.83Z"/>
  </g>
</svg>