<?xml version="1.0" encoding="UTF-8"?>
<svg id="Capa_1" xmlns="http://www.w3.org/2000/svg" version="1.1" viewBox="0 0 1080 1080">
  <!-- Generator: Adobe Illustrator 30.1.0, SVG Export Plug-In . SVG Version: 2.1.1 Build 136)  -->
  <defs>
    <style>
      .st0 {
        fill: #f8f8f0;
      }
    </style>
  </defs>
  <g>
    <g>
      <path class="st0" d="M-906.37,575.57h18.27c10.87,0,17.37,1.81,22.8,6.19,5.74,4.83,9.36,12.84,9.36,20.99,0,8.76-2.72,13.89-9.97,19.63,4.83,1.51,7.55,2.87,10.42,5.44,5.29,4.68,8.61,12.53,8.61,20.23,0,8.61-3.63,16.01-10.27,21.29-6.19,5.13-12.68,6.95-24.01,6.95h-25.22v-100.72ZM-886.59,619.96c7.55,0,10.87-.91,14.34-3.92,3.47-3.17,5.29-7.7,5.29-12.99s-1.96-10.27-5.29-13.29c-3.17-2.72-7.25-3.77-14.04-3.77h-8.76v33.97h8.46ZM-882.21,665.87c8.91,0,13.29-1.06,17.52-4.53,4.23-3.32,6.49-8.15,6.49-13.59,0-6.34-3.32-12.23-8.31-15.1-4.08-2.42-8.61-3.17-17.21-3.17h-11.32v36.39h12.84Z"/>
      <path class="st0" d="M-758.09,676.29h-13.74l-30.35-44.09h-2.87v44.09h-11.33v-100.72h16.31c11.48,0,18.27,1.51,24.16,5.44,6.95,4.68,11.17,13.29,11.17,22.8,0,15.25-9.97,26.12-25.37,27.48l32.01,45ZM-797.95,622.23c14.2,0,22.2-6.64,22.2-18.42,0-6.19-2.72-11.63-7.4-14.5-3.62-2.26-8.15-3.32-15.25-3.32h-6.64v36.24h7.1Z"/>
      <path class="st0" d="M-719.13,676.29h-11.33v-100.72h11.33v100.72Z"/>
      <path class="st0" d="M-606.19,597.77c-9.81-9.21-19.03-13.29-30.5-13.29-22.2,0-40.62,18.88-40.62,41.98s18.42,41.07,40.77,41.07c11.18,0,20.69-4.08,30.35-13.14v13.89c-9.81,6.8-19.33,9.82-30.35,9.82-28.54,0-52.1-23.41-52.1-51.8s23.71-52.4,52.7-52.4c11.17,0,19.48,2.87,29.75,9.97v13.89Z"/>
      <path class="st0" d="M-521.33,575.57h15.1l-47.26,46.96,48.77,53.76h-15.4l-41.23-46.21-2.87,2.87v43.34h-11.33v-100.72h11.33v43.19l42.89-43.19Z"/>
      <path class="st0" d="M-468.33,585.99v30.05h39.71v10.42h-39.71v39.41h40.77v10.42h-52.1v-100.72h52.1v10.42h-40.77Z"/>
      <path class="st0" d="M-385.44,665.87h27.63v10.42h-38.96v-100.72h11.33v90.3Z"/>
      <path class="st0" d="M-321.27,665.87h27.63v10.42h-38.96v-100.72h11.33v90.3Z"/>
    </g>
    <path class="st0" d="M-512.1,380.35h0c0-30-24.32-54.33-54.32-54.33h-121.48v201.44h121.48c30,0,54.32-24.32,54.32-54.32,0-15-6.08-28.58-15.91-38.41-3.05-3.05-6.46-5.73-10.15-7.99,15.63-9.54,26.06-26.75,26.06-46.39ZM-672.05,341.87h72.95,0s-37.52,76.94-37.52,76.94h-35.42v-76.94ZM-672.05,511.61v-76.94h35.45l37.53,76.93h0s-72.98.01-72.98.01ZM-539.22,445.94c6.96,6.96,11.27,16.58,11.27,27.2,0,21.24-17.22,38.47-38.47,38.47h-15.02l-1.87-3.83-35.66-73.11h52.54c10.62,0,20.24,4.31,27.2,11.27ZM-527.95,380.35c0,21.24-17.22,38.47-38.47,38.47h-52.58l35.66-73.12,1.86-3.82h15.05c21.25,0,38.47,17.23,38.47,38.47h0Z"/>
    <g>
      <path class="st0" d="M-799.19,749.2h8.83v3.33h-12.44v-32.17h3.62v28.84Z"/>
      <path class="st0" d="M-781.1,752.53h-3.62v-32.17h3.62v32.17Z"/>
      <path class="st0" d="M-768.32,723.69v9.6h10.66v3.33h-10.66v15.91h-3.62v-32.17h14.61v3.33h-11Z"/>
      <path class="st0" d="M-746.62,723.69v9.6h12.68v3.33h-12.68v12.59h13.02v3.33h-16.64v-32.17h16.64v3.33h-13.02Z"/>
      <path class="st0" d="M-712.8,726.68c-1.64-2.6-3.04-3.47-5.55-3.47-2.99,0-5.31,2.12-5.31,4.97,0,1.4.68,2.56,2.03,3.47q1.16.77,5.54,2.7c5.21,2.27,7.28,4.82,7.28,8.87,0,5.55-4.44,9.89-10.22,9.89-5.06,0-8.68-3.04-9.88-8.29l3.47-.96c.38,1.64.67,2.41,1.3,3.28,1.16,1.64,3.14,2.6,5.26,2.6,3.62,0,6.46-2.8,6.46-6.32,0-1.98-.87-3.47-2.65-4.58q-1.21-.77-5.69-2.8c-4.63-2.07-6.51-4.39-6.51-7.91,0-4.73,3.86-8.3,9.02-8.3,3.61,0,6.36,1.69,8.29,5.02l-2.85,1.83Z"/>
      <path class="st0" d="M-693.6,752.53h-3.61v-28.84h-7.77v-3.33h19.19v3.33h-7.81v28.84Z"/>
      <path class="st0" d="M-682.27,720.37h4.15l8.2,14.37,8.29-14.37h4.19l-10.71,18.33v13.84h-3.62v-13.84l-10.51-18.33Z"/>
      <path class="st0" d="M-648.55,749.2h8.83v3.33h-12.44v-32.17h3.62v28.84Z"/>
      <path class="st0" d="M-630.46,723.69v9.6h12.68v3.33h-12.68v12.59h13.02v3.33h-16.64v-32.17h16.64v3.33h-13.02Z"/>
      <path class="st0" d="M-596.51,720.37h5.84c3.47,0,5.55.58,7.28,1.98,1.84,1.54,2.99,4.1,2.99,6.7,0,2.8-.87,4.44-3.18,6.27,1.55.48,2.41.92,3.33,1.74,1.69,1.5,2.75,4,2.75,6.46,0,2.75-1.16,5.11-3.28,6.8-1.97,1.64-4.05,2.22-7.67,2.22h-8.06v-32.17ZM-590.19,734.55c2.41,0,3.47-.29,4.58-1.25,1.11-1.01,1.68-2.46,1.68-4.15s-.63-3.28-1.68-4.24c-1.01-.87-2.32-1.21-4.49-1.21h-2.8v10.85h2.7ZM-588.79,749.2c2.85,0,4.24-.34,5.59-1.45,1.35-1.06,2.08-2.6,2.08-4.34,0-2.03-1.06-3.91-2.65-4.82-1.3-.77-2.75-1.01-5.5-1.01h-3.62v11.62h4.1Z"/>
      <path class="st0" d="M-566.55,740.09c0,3.33.24,4.77,1.06,6.17,1.25,2.03,4,3.47,6.8,3.47s5.5-1.45,6.75-3.47c.82-1.4,1.06-2.85,1.06-6.17v-19.72h3.62v20.69c0,3.47-.58,5.64-2.12,7.62-2.12,2.75-5.64,4.44-9.31,4.44s-7.28-1.69-9.35-4.44c-1.55-1.98-2.13-4.1-2.13-7.62v-20.69h3.62v19.72Z"/>
      <path class="st0" d="M-534.47,752.53h-3.62v-32.17h3.62v32.17Z"/>
      <path class="st0" d="M-521.69,749.2h8.83v3.33h-12.44v-32.17h3.62v28.84Z"/>
      <path class="st0" d="M-507.22,720.37h6.61c5.21,0,8.73,1.11,11.81,3.71,3.62,2.99,5.55,7.33,5.55,12.35s-1.93,9.36-5.64,12.39c-3.18,2.65-6.56,3.71-11.77,3.71h-6.56v-32.17ZM-500.47,749.2c3.95,0,6.8-.92,9.21-2.94,2.85-2.36,4.39-5.88,4.39-9.79s-1.59-7.52-4.34-9.84c-2.41-2.03-5.31-2.94-9.26-2.94h-3.14v25.51h3.14Z"/>
      <path class="st0" d="M-472.3,752.53h-3.62v-32.17h3.62v32.17Z"/>
      <path class="st0" d="M-463.13,719.02l25.03,26.28v-24.93h3.61v33.61l-25.03-26.23v24.79h-3.62v-33.52Z"/>
      <path class="st0" d="M-395.37,736.38v.82c0,3.57-.48,5.98-1.69,8.15-2.6,4.73-7.91,7.76-13.55,7.76-9.02,0-16.49-7.52-16.49-16.59s7.53-16.69,16.78-16.69c3.61,0,7.09,1.16,9.84,3.28,1.25.92,2.17,1.83,3.71,3.71l-2.65,2.41c-3.18-4.19-6.46-6.03-10.85-6.03-7.33,0-13.21,5.98-13.21,13.36s5.93,13.17,12.93,13.17c4,0,8.05-2.22,10.03-5.5.82-1.3,1.16-2.56,1.3-4.53h-9.55v-3.33h13.41Z"/>
    </g>
  </g>
  <g>
    <g>
      <path class="st0" d="M473.39,617.22h7.1v2.68h-10.01v-25.89h2.91v23.21Z"/>
      <path class="st0" d="M487.95,619.9h-2.91v-25.89h2.91v25.89Z"/>
      <path class="st0" d="M498.23,596.69v7.72h8.58v2.68h-8.58v12.81h-2.91v-25.89h11.76v2.68h-8.85Z"/>
      <path class="st0" d="M515.7,596.69v7.72h10.21v2.68h-10.21v10.13h10.48v2.68h-13.39v-25.89h13.39v2.68h-10.48Z"/>
      <path class="st0" d="M542.92,599.1c-1.32-2.1-2.45-2.79-4.46-2.79-2.41,0-4.27,1.71-4.27,4,0,1.13.54,2.06,1.63,2.79q.93.62,4.46,2.17c4.19,1.82,5.86,3.88,5.86,7.14,0,4.46-3.57,7.96-8.23,7.96-4.07,0-6.99-2.44-7.96-6.68l2.79-.78c.31,1.32.54,1.94,1.05,2.64.93,1.32,2.52,2.1,4.23,2.1,2.91,0,5.2-2.25,5.2-5.08,0-1.59-.7-2.79-2.14-3.69q-.97-.62-4.58-2.25c-3.73-1.67-5.24-3.53-5.24-6.36,0-3.8,3.1-6.68,7.26-6.68,2.91,0,5.12,1.36,6.68,4.04l-2.29,1.48Z"/>
      <path class="st0" d="M558.37,619.9h-2.91v-23.21h-6.25v-2.68h15.45v2.68h-6.29v23.21Z"/>
      <path class="st0" d="M567.49,594.01h3.34l6.6,11.57,6.68-11.57h3.38l-8.62,14.75v11.14h-2.91v-11.14l-8.46-14.75Z"/>
      <path class="st0" d="M594.63,617.22h7.1v2.68h-10.01v-25.89h2.91v23.21Z"/>
      <path class="st0" d="M609.19,596.69v7.72h10.21v2.68h-10.21v10.13h10.48v2.68h-13.39v-25.89h13.39v2.68h-10.48Z"/>
      <path class="st0" d="M636.52,594.01h4.7c2.79,0,4.46.47,5.86,1.59,1.48,1.24,2.41,3.3,2.41,5.4,0,2.25-.7,3.57-2.56,5.05,1.24.39,1.94.74,2.68,1.4,1.36,1.2,2.21,3.22,2.21,5.2,0,2.21-.93,4.11-2.64,5.47-1.59,1.32-3.26,1.78-6.17,1.78h-6.48v-25.89ZM641.6,605.42c1.94,0,2.79-.23,3.69-1.01.89-.81,1.36-1.98,1.36-3.34s-.5-2.64-1.36-3.42c-.82-.7-1.86-.97-3.61-.97h-2.25v8.73h2.17ZM642.73,617.22c2.29,0,3.42-.27,4.5-1.16,1.09-.85,1.67-2.1,1.67-3.49,0-1.63-.85-3.14-2.14-3.88-1.05-.62-2.21-.81-4.42-.81h-2.91v9.35h3.3Z"/>
      <path class="st0" d="M660.63,609.89c0,2.68.19,3.84.85,4.97,1.01,1.63,3.22,2.79,5.47,2.79s4.43-1.16,5.43-2.79c.66-1.13.85-2.29.85-4.97v-15.87h2.91v16.65c0,2.79-.47,4.54-1.71,6.13-1.71,2.21-4.54,3.57-7.49,3.57s-5.86-1.36-7.53-3.57c-1.24-1.59-1.71-3.3-1.71-6.13v-16.65h2.91v15.87Z"/>
      <path class="st0" d="M686.44,619.9h-2.91v-25.89h2.91v25.89Z"/>
      <path class="st0" d="M696.73,617.22h7.1v2.68h-10.01v-25.89h2.91v23.21Z"/>
      <path class="st0" d="M708.38,594.01h5.32c4.19,0,7.02.89,9.51,2.99,2.91,2.41,4.46,5.9,4.46,9.94s-1.55,7.53-4.54,9.97c-2.56,2.14-5.28,2.99-9.47,2.99h-5.28v-25.89ZM713.81,617.22c3.18,0,5.47-.74,7.41-2.37,2.29-1.9,3.53-4.74,3.53-7.88s-1.28-6.05-3.49-7.92c-1.94-1.63-4.27-2.37-7.45-2.37h-2.52v20.53h2.52Z"/>
      <path class="st0" d="M736.48,619.9h-2.91v-25.89h2.91v25.89Z"/>
      <path class="st0" d="M743.86,592.92l20.14,21.15v-20.07h2.91v27.05l-20.14-21.11v19.95h-2.91v-26.98Z"/>
      <path class="st0" d="M798.4,606.9v.66c0,2.87-.39,4.81-1.36,6.56-2.1,3.8-6.37,6.25-10.91,6.25-7.26,0-13.27-6.06-13.27-13.35s6.06-13.43,13.51-13.43c2.91,0,5.71.93,7.92,2.64,1.01.74,1.75,1.47,2.99,2.99l-2.13,1.94c-2.56-3.38-5.2-4.85-8.73-4.85-5.9,0-10.64,4.81-10.64,10.75s4.78,10.6,10.4,10.6c3.22,0,6.48-1.79,8.07-4.43.66-1.05.93-2.06,1.05-3.65h-7.68v-2.68h10.79Z"/>
    </g>
    <path class="st0" d="M340.48,502.66h0c0-24.15-19.58-43.72-43.72-43.72h-97.77v162.13h97.77c24.14,0,43.72-19.58,43.72-43.72,0-12.07-4.89-23-12.8-30.92-2.45-2.45-5.2-4.61-8.17-6.43,12.58-7.68,20.97-21.53,20.97-37.34ZM211.74,471.69h58.71,0s-30.2,61.93-30.2,61.93h-28.51v-61.93ZM211.74,608.3v-61.92h28.53l30.2,61.91h0s-58.74.01-58.74.01ZM318.65,555.45c5.61,5.6,9.07,13.34,9.07,21.89,0,17.1-13.86,30.96-30.96,30.96h-12.09l-1.5-3.09-28.7-58.84h42.29c8.55,0,16.29,3.47,21.89,9.07ZM327.72,502.66c0,17.1-13.86,30.96-30.96,30.96h-42.32l28.7-58.85,1.5-3.07h12.11c17.1,0,30.96,13.86,30.96,30.96h0Z"/>
    <g>
      <path class="st0" d="M387.86,488.4h14.71c8.75,0,13.98,1.46,18.35,4.98,4.62,3.89,7.54,10.33,7.54,16.89,0,7.05-2.19,11.18-8.02,15.8,3.89,1.21,6.08,2.31,8.39,4.38,4.25,3.77,6.93,10.09,6.93,16.28,0,6.93-2.92,12.88-8.26,17.14-4.98,4.13-10.21,5.59-19.32,5.59h-20.3v-81.06ZM403.78,524.13c6.08,0,8.75-.73,11.55-3.16,2.79-2.55,4.25-6.2,4.25-10.45s-1.58-8.26-4.25-10.7c-2.55-2.19-5.83-3.04-11.3-3.04h-7.05v27.34h6.81ZM407.31,561.08c7.17,0,10.69-.85,14.1-3.65,3.4-2.67,5.23-6.56,5.23-10.94,0-5.1-2.67-9.84-6.68-12.15-3.28-1.94-6.93-2.55-13.85-2.55h-9.11v29.29h10.33Z"/>
      <path class="st0" d="M507.2,569.46h-11.06l-24.43-35.49h-2.31v35.49h-9.12v-81.06h13.13c9.24,0,14.71,1.21,19.45,4.38,5.59,3.77,8.99,10.69,8.99,18.35,0,12.27-8.02,21.03-20.42,22.12l25.77,36.22ZM475.12,525.95c11.43,0,17.87-5.35,17.87-14.83,0-4.98-2.19-9.36-5.96-11.67-2.92-1.82-6.56-2.67-12.27-2.67h-5.35v29.17h5.71Z"/>
      <path class="st0" d="M538.56,569.46h-9.12v-81.06h9.12v81.06Z"/>
      <path class="st0" d="M629.46,506.27c-7.9-7.41-15.31-10.7-24.55-10.7-17.86,0-32.69,15.19-32.69,33.79s14.83,33.06,32.81,33.06c8.99,0,16.65-3.28,24.43-10.57v11.18c-7.9,5.47-15.56,7.9-24.43,7.9-22.97,0-41.93-18.84-41.93-41.69s19.08-42.17,42.42-42.17c8.99,0,15.68,2.31,23.94,8.02v11.18Z"/>
      <path class="st0" d="M697.76,488.4h12.15l-38.04,37.8,39.25,43.27h-12.4l-33.18-37.19-2.31,2.31v34.88h-9.12v-81.06h9.12v34.76l34.52-34.76Z"/>
      <path class="st0" d="M740.41,496.79v24.19h31.96v8.38h-31.96v31.72h32.81v8.39h-41.93v-81.06h41.93v8.39h-32.81Z"/>
      <path class="st0" d="M807.13,561.08h22.24v8.39h-31.36v-81.06h9.12v72.68Z"/>
      <path class="st0" d="M858.77,561.08h22.24v8.39h-31.36v-81.06h9.12v72.68Z"/>
    </g>
  </g>
</svg>