<svg xmlns="http://www.w3.org/2000/svg" id="Layer_2" data-name="Layer 2" viewBox="0 0 750 216.01"><defs><style>      .cls-1 {        fill: #f2f2f2;      }    </style></defs><g id="Logos"><g><path class="cls-1" d="M296.28,151.61l43.65-.12,7.7-.02c2.89-8.61,4.03-18.94,4.03-25.52s-.81-12.63-2.4-18.36v-.02c-4.91-17.92-17.24-31.71-35.48-38.37-7.75-2.84-16.59-4.37-26.38-4.37-5.61,0-11.24.72-16.73,2.09v.02c-25.17,6.33-47.77,26.83-55.84,57.59-.05.16-.09.33-.12.51-.67,2.54-1.23,5.17-1.67,7.84-.02.14-.05.26-.07.37-.86,5.26-1.3,10.75-1.3,16.5,0,24.66,11.87,44.46,29.55,55.77,3.89,2.49,8.05,4.58,12.42,6.19,7.47,2.82,15.59,4.3,24.01,4.3,1.7,0,3.35-.05,4.96-.14,8.31-.4,15.71-1.88,22.27-4.16,10.75-3.68,19.24-9.52,25.71-16.29l.02-.02c4.84-5,8.56-10.52,11.31-16.1l-7.21-3.23-26.64-11.98c-3.4,6.77-9.59,12.31-17.57,14.73-2.84.88-5.89,1.35-9.12,1.35-18.26,0-27.97-10.91-29.59-24.34v-.05c-.16-1.33-.23-2.65-.23-4.03h1.09l43.65-.14ZM261.05,112.15c5.51-7.77,13.94-12.61,26.06-12.61,8.89,0,14.89,2.98,18.73,7.1,4.05,4.35,5.65,9.98,5.65,14.7v2.02h-55.96c1.37-4.16,3.19-7.93,5.51-11.21Z"></path><path class="cls-1" d="M423.45,168.87l53.68-47.37,18.68-16.5,7.75-35.88h-116.78l-8.03,37.02h59.1l-1.33,1.16v.02l-53.77,47.81v.02l-20.36,18.1-8.03,38.44h119.64l8.03-37.3h-64.84l6.26-5.51v-.02Z"></path><path class="cls-1" d="M531.94,69.13l-20.1,94.23-1.77,8.33-8.54,40.02h43.6l16.96-79.55.33-1.51,13.12-61.52h-43.6ZM586.92,15.31v-.02c-.51-1.75-1.23-3.37-2.12-4.89-3.77-6.35-10.75-10.4-19.59-10.4-8.12,0-15.33,3.21-20.43,8.42v.02c-.63.63-1.19,1.28-1.72,1.95-3.75,4.65-5.96,10.59-5.96,17.12,0,3.19.6,6.17,1.72,8.84v.02c3.3,7.96,11.08,13.24,20.94,13.24,8.56,0,16.73-3.75,22.03-10.17v-.02c3.75-4.56,6.07-10.47,6.07-17.36,0-2.37-.33-4.65-.95-6.77Z"></path><path class="cls-1" d="M696.46,115.52l53.49-46.35.05-.05h-59.4l-34.43,30.9-11.63,54.7,1.88,4.21,18.08,40.53,5.47,12.24h48.46l-29.55-60.4v-.02l-10.03-20.47,17.61-15.26v-.02Z"></path><polygon class="cls-1" points="654.77 4.02 631.24 113.89 618.33 175.29 610.58 211.7 566.98 211.7 610.86 4.02 654.77 4.02"></polygon><path class="cls-1" d="M195.09,111.21c0,62.19-40.62,100.54-101.4,100.54H0l8.98-42.3h83.02c30.94,0,56.24-17.89,56.24-58.24s-25.29-58.52-56.24-58.52h-58.19l8.98-42.3h51.19c60.49,0,101.12,38.62,101.12,100.81Z"></path></g></g></svg>