<?xml version="1.0" encoding="UTF-8"?>
<svg id="Capa_1" xmlns="http://www.w3.org/2000/svg" version="1.1" viewBox="0 0 641 129">
  <!-- Generator: Adobe Illustrator 30.0.0, SVG Export Plug-In . SVG Version: 2.1.1 Build 123)  -->
  <defs>
    <style>
      .st0 {
        fill: #fff;
      }
    </style>
  </defs>
  <path class="st0" d="M75.8,126.2c0-4.3.5-8.3,1-11.9-8.3,9.3-18.8,14.7-33.2,14.7C18.3,129,0,111.7,0,87s10.4-34.2,32.1-41.3c-4.3-1.7-9.3-5.7-11.2-10-7.4-15.7,11.4-29.7,43.2-29.7s34.4,3.3,41.1,14.5c6.9,11.4,1,30.9,1,46.3-.2,15.7,1.7,30.9,5.2,59.4.5,4-35.6,3.3-35.6,0h0ZM93.6,55.4c.5-7.4-.2-14.2-1.7-20-3.1,5.9-12.6,12.3-31.4,15.9-24.2,4.8-32.3,21.4-32.3,35.2,0,38.7,43,39.4,60.8-8.1,2.4-6.7,4-14,4.5-23ZM39.9,43.5c4.8-1,9.7-1.7,15.2-1.9,29.7-1.7,36.6-11.2,30.4-19.2-4.5-4.8-10.5-7.6-18.5-7.6-16.9,0-24.5,11.2-26.8,28,0,.2,0,.5-.2.7h0Z"/>
  <path class="st0" d="M228,10.3c-40.4,62.5,0,73.9,0,115.9s-36.1,4-35.6,0c.7-4.8,1.2-9.3,1.7-13.3-6.9,11.2-17.8,16.2-32.8,16.2s-35.1-8.1-32.5-29.7c4.8-38.5,2.6-47.5-3.1-89.1-.7-5.7,38.7-5.7,35.6,0-20.9,37.8-23,106.2,10,106.2s25.2-15.2,26.4-41.1c.7-17.8-1.2-33-5.2-65.1-1-5.7,39.4-5.7,35.6,0h0Z"/>
  <path class="st0" d="M319.9,23.8c-39.2-2.1-58.7,23.8-48.9,72,3.6,9.7,7.1,18.5,7.1,30.4s-36.1,4-35.6,0c7.1-55.3,7.1-60.6,0-115.9-1-5.7,20.7-5.7,19.7,0-3.6,19.7-1,37.5.2,50.6,2.1-50.8,39.2-73.1,60.6-54.1,9.3,8.3,5.9,17.6-3.1,17.1h0Z"/>
  <path class="st0" d="M388.5,6c81.7,0,78.8,123-2.6,123s-78.8-123,2.6-123h0ZM386.9,15c-32.1,0-29.9,9.3-33.2,39.7-3.6,33,9,65.3,34,65.3,49.2,0,42.3-105-.7-105Z"/>
  <path class="st0" d="M535.3,23.8c-39.2-2.1-58.7,23.8-48.9,72,3.6,9.7,7.1,18.5,7.1,30.4s-36.1,4-35.6,0c7.1-55.3,7.1-60.6,0-115.9-1-5.7,20.7-5.7,19.7,0-3.6,19.7-1,37.5.2,50.6,2.1-50.8,39.2-73.1,60.6-54.1,9.3,8.3,5.9,17.6-3.1,17.1h0Z"/>
  <path class="st0" d="M605.4,126.2c0-4.3.5-8.3,1-11.9-8.3,9.3-18.8,14.7-33.2,14.7-25.2,0-43.5-17.3-43.5-42s10.5-34.2,32.1-41.3c-4.3-1.7-9.3-5.7-11.2-10-7.4-15.7,11.4-29.7,43.2-29.7s34.4,3.3,41.1,14.5c6.9,11.4,1,30.9,1,46.3-.2,15.7,1.7,30.9,5.2,59.4.5,4-35.6,3.3-35.6,0h0ZM623.2,55.4c.5-7.4-.2-14.2-1.7-20-3.1,5.9-12.6,12.3-31.3,15.9-24.2,4.8-32.3,21.4-32.3,35.2,0,38.7,43,39.4,60.8-8.1,2.4-6.7,4-14,4.5-23h0ZM569.5,43.5c4.8-1,9.7-1.7,15.2-1.9,29.7-1.7,36.6-11.2,30.4-19.2-4.5-4.8-10.5-7.6-18.5-7.6-16.9,0-24.5,11.2-26.8,28,0,.2,0,.5-.2.7h0Z"/>
</svg>