<?xml version="1.0" encoding="UTF-8"?>
<svg id="Layer_2" data-name="Layer 2" xmlns="http://www.w3.org/2000/svg" viewBox="0 0 385.37 48.55">
  <defs>
    <style>
      .cls-1 {
        fill: #070707;
      }
    </style>
  </defs>
  <g id="Layer_1-2" data-name="Layer 1">
    <g>
      <g>
        <polygon class="cls-1" points="216.21 .22 214 8.48 208.37 29.53 206.13 37.86 203.27 48.54 193.04 48.54 189.87 37.86 188.64 33.69 187.4 29.53 183.84 17.53 181.87 17.53 178.66 29.53 177.54 33.69 176.43 37.86 173.56 48.54 163.66 48.54 166.52 37.86 168.76 29.53 174.4 8.48 179.58 8.48 176.62 .22 188.61 .22 191.07 8.48 197.35 29.53 197.94 31.5 198.46 29.53 204.11 8.48 206.32 .22 216.21 .22"/>
        <polygon class="cls-1" points="232.5 8.48 257.16 8.48 259.38 .22 224.49 .22 224.49 .23 227.45 8.48 222.28 8.48 219.81 17.67 222.28 8.48 216.63 29.53 215.52 33.69 214.4 37.86 215.25 34.69 214.41 37.86 214.4 37.86 211.54 48.55 246.43 48.55 248.76 39.82 224.1 39.82 224.63 37.86 225.75 33.7 226.86 29.53 227.36 27.69 249.72 27.69 251.97 19.3 229.61 19.3 232.5 8.48"/>
        <path class="cls-1" d="M131.25,8.48l.26-.98L126.18.22h-30.49l2.96,8.26h-5.24l-2.15,8.05-3.49,13-2.23,8.33-2.86,10.68h10.23l2.86-10.68,1.12-4.16.61-2.26h11.54l.31,2.26.58,4.16,1.47,10.68h10.82l-1.68-10.68-.65-4.16-.55-3.51.83-.65,6.89-5.38,2.04-7.62,2.16-8.05ZM119.04,16.53l-1.07,4.09-3.31,2.56h-14.94l1.78-6.65,2.15-8.05h14.95l1.87,2.56-1.43,5.49Z"/>
        <path class="cls-1" d="M297.53,24.15l4.46-16.65-5.33-7.28h-30.49l2.96,8.26h-5.24l-5.64,21.05-1.12,4.16-1.11,4.16h0l-2.86,10.68h10.22l2.87-10.68,1.12-4.16.6-2.26h11.54l.31,2.26.58,4.16,1.47,10.68h10.82l-1.68-10.68-.65-4.16-.55-3.51.83-.65,6.88-5.38ZM288.45,20.62l-3.31,2.56h-14.95l3.93-14.7h14.95l1.87,2.56-2.5,9.57Z"/>
        <path class="cls-1" d="M37.94,29.53l.28-.22,5.05-3.98,2.36-8.81,2.15-8.05.27-.98-2.92-3.99-2.41-3.29H12.94l2.97,8.26h-5.18l-2.16,8.05-3.49,13-1.12,4.16-1.11,4.16-2.86,10.68h10.23l2.86-10.68,1.12-4.16.29-1.09h19.55l3.9-3.08ZM16.71,24.35l2.1-7.82,2.15-8.05h14.16l1.94,2.56-1.47,5.49-1.41,5.26-3.31,2.56h-14.16Z"/>
        <path class="cls-1" d="M78.42,33.69l-.16-4.16-.55-13-.33-8.05-.34-8.26h-16.06l-4.77,8.26-2.81,4.88-1.83,3.17-7.51,13-2.4,4.16-2.41,4.16-6.17,10.68h10.89l5.82-10.68,2.29-4.16,1.5,4.16h14.5l.15,10.68h10.82l-.44-10.68-.18-4.16ZM54.36,29.53l7.14-13,4.41-8.05h1.82l.08,8.05.13,13h-13.57Z"/>
        <polygon class="cls-1" points="151.93 8.48 170.48 8.48 172.69 .22 135.51 .22 133.3 8.48 146.74 8.48 144.58 16.53 143.45 20.77 141.1 29.53 139.98 33.7 138.87 37.86 138.87 37.86 136.01 48.55 146.23 48.55 149.1 37.86 150.21 33.7 150.21 33.69 150.21 33.69 150.71 31.82 151.33 29.53 154.81 16.53 154.81 16.53 151.93 8.48 151.93 8.48"/>
      </g>
      <g>
        <path class="cls-1" d="M329.03,24.65c-2.25,0-4.21-.52-5.89-1.55-1.68-1.03-2.98-2.47-3.9-4.32-.92-1.85-1.38-3.97-1.38-6.35s.45-4.48,1.36-6.35,2.24-3.35,3.98-4.44c1.75-1.09,3.88-1.63,6.4-1.63,2.75,0,5.02.66,6.82,1.97,1.8,1.32,2.98,3.13,3.52,5.45h-4.12c-.34-1.27-1.04-2.27-2.11-3-1.07-.73-2.44-1.09-4.12-1.09s-3.19.39-4.39,1.16c-1.2.77-2.11,1.84-2.72,3.2-.61,1.36-.92,2.94-.92,4.73s.31,3.37.92,4.73c.61,1.36,1.5,2.41,2.67,3.15,1.17.74,2.55,1.11,4.14,1.11,2.29,0,4.03-.63,5.23-1.89,1.19-1.26,1.9-2.97,2.13-5.12h-8.07v-2.96h11.81v12.8h-3.34l-.31-3.51c-.82,1.25-1.83,2.21-3.03,2.89-1.2.68-2.77,1.02-4.7,1.02Z"/>
        <path class="cls-1" d="M348.43,24.24v-9.33l-7.86-14.5h4.08l5.62,10.96,5.58-10.96h4.05l-7.83,14.5v9.33h-3.64Z"/>
        <path class="cls-1" d="M361.91,24.24V.41h4.25l7.52,15.97,7.39-15.97h4.29v23.83h-3.61V6.88l-6.71,14.16h-2.83l-6.71-14.13v17.33h-3.61Z"/>
      </g>
    </g>
  </g>
</svg>